<?xml version="1.0" encoding="UTF-8" standalone="no"?>
<!-- Created with Inkscape (http://www.inkscape.org/) -->

<svg
   xmlns:dc="http://purl.org/dc/elements/1.1/"
   xmlns:cc="http://creativecommons.org/ns#"
   xmlns:rdf="http://www.w3.org/1999/02/22-rdf-syntax-ns#"
   xmlns:svg="http://www.w3.org/2000/svg"
   xmlns="http://www.w3.org/2000/svg"
   xmlns:xlink="http://www.w3.org/1999/xlink"
   version="1.1"
   width="32"
   height="32"
   viewBox="0 0 32 32"
   id="Capa_1"
   xml:space="preserve"><metadata
     id="metadata195"><rdf:RDF><cc:Work
         rdf:about=""><dc:format>image/svg+xml</dc:format><dc:type
           rdf:resource="http://purl.org/dc/dcmitype/StillImage" /><dc:title></dc:title></cc:Work></rdf:RDF></metadata><defs
     id="defs193"><defs
       id="defs157"><filter
         filterUnits="userSpaceOnUse"
         x="164.701"
         y="198.955"
         width="48"
         height="12"
         color-interpolation-filters="sRGB"
         id="Adobe_OpacityMaskFilter_1_"><feColorMatrix
           id="feColorMatrix160"
           values="1 0 0 0 0  0 1 0 0 0  0 0 1 0 0  0 0 0 1 0"
           type="matrix" /></filter></defs><mask
       id="SVGID_9_"><g
         id="g163"
         style="filter:url(#Adobe_OpacityMaskFilter_1_)"><image
           xlink:href="/home/elias/Descargas/9EB07EB3.jpeg"
           width="53"
           height="17"
           transform="translate(162,196)"
           id="image165"
           style="overflow:visible" /></g></mask><defs
       id="defs118"><filter
         filterUnits="userSpaceOnUse"
         x="164.701"
         y="178.59801"
         width="48"
         height="12"
         color-interpolation-filters="sRGB"
         id="Adobe_OpacityMaskFilter"><feColorMatrix
           id="feColorMatrix121"
           values="1 0 0 0 0  0 1 0 0 0  0 0 1 0 0  0 0 0 1 0"
           type="matrix" /></filter></defs><mask
       id="SVGID_7_"><g
         id="g124"
         style="filter:url(#Adobe_OpacityMaskFilter)"><image
           xlink:href="/home/elias/Descargas/9EB07EB1.jpeg"
           width="53"
           height="17"
           transform="translate(162,176)"
           id="image126"
           style="overflow:visible" /></g></mask><defs
       id="defs50"><path
         d="M 252,233.518 C 252,244.278 243.277,253 232.518,253 H 22.482 C 11.722,253 3,244.277 3,233.518 V 23.482 C 3,12.722 11.722,4 22.482,4 H 232.518 C 243.277,4 252,12.722 252,23.482 v 210.036 z"
         id="SVGID_10_" /></defs><clipPath
       id="SVGID_11_"><use
         id="use54"
         style="overflow:visible"
         x="0"
         y="0"
         width="256"
         height="256"
         xlink:href="#SVGID_10_" /></clipPath><defs
       id="defs40"><path
         d="M 252,233.518 C 252,244.278 243.277,253 232.518,253 H 22.482 C 11.722,253 3,244.277 3,233.518 V 23.482 C 3,12.722 11.722,4 22.482,4 H 232.518 C 243.277,4 252,12.722 252,23.482 v 210.036 z"
         id="SVGID_6_" /></defs><clipPath
       id="SVGID_8_"><use
         id="use44"
         style="overflow:visible"
         x="0"
         y="0"
         width="256"
         height="256"
         xlink:href="#SVGID_6_" /></clipPath><defs
       id="defs30"><path
         d="M 252,233.518 C 252,244.278 243.277,253 232.518,253 H 22.482 C 11.722,253 3,244.277 3,233.518 V 23.482 C 3,12.722 11.722,4 22.482,4 H 232.518 C 243.277,4 252,12.722 252,23.482 v 210.036 z"
         id="SVGID_4_" /></defs><linearGradient
       x1="101.8057"
       y1="118.1094"
       x2="252.3055"
       y2="-32.3904"
       id="linearGradient3338"
       xlink:href="#SVGID_3_"
       gradientUnits="userSpaceOnUse"
       gradientTransform="matrix(1,0,0,-1,24.9448,247.3594)" /><defs
       id="defs7"><path
         d="M 252,233.518 C 252,244.278 243.277,253 232.518,253 H 22.482 C 11.722,253 3,244.277 3,233.518 V 23.482 C 3,12.722 11.722,4 22.482,4 H 232.518 C 243.277,4 252,12.722 252,23.482 v 210.036 z"
         id="SVGID_1_" /></defs><clipPath
       id="SVGID_2_"><use
         id="use11"
         style="overflow:visible"
         x="0"
         y="0"
         width="256"
         height="256"
         xlink:href="#SVGID_1_" /></clipPath><linearGradient
       x1="101.8057"
       y1="118.1094"
       x2="252.3055"
       y2="-32.3904"
       id="SVGID_3_"
       gradientUnits="userSpaceOnUse"
       gradientTransform="matrix(1,0,0,-1,24.9448,247.3594)"><stop
         id="stop14"
         style="stop-color:#ffffff;stop-opacity:1"
         offset="0" /><stop
         id="stop16"
         style="stop-color:#dedede;stop-opacity:1"
         offset="0.18870001" /><stop
         id="stop18"
         style="stop-color:#c0c0c0;stop-opacity:1"
         offset="0.4012" /><stop
         id="stop20"
         style="stop-color:#aaaaaa;stop-opacity:1"
         offset="0.61040002" /><stop
         id="stop22"
         style="stop-color:#9d9d9d;stop-opacity:1"
         offset="0.81260002" /><stop
         id="stop24"
         style="stop-color:#999999;stop-opacity:1"
         offset="1" /></linearGradient><radialGradient
       cx="171.81641"
       cy="174.22459"
       r="19.0854"
       id="SVGID_13_"
       gradientUnits="userSpaceOnUse"
       gradientTransform="matrix(1,0,0,-1,24.9453,247.3594)"><stop
         id="stop89"
         style="stop-color:#f2f2f2;stop-opacity:1"
         offset="0" /><stop
         id="stop91"
         style="stop-color:#ededed;stop-opacity:1"
         offset="0.61379999" /><stop
         id="stop93"
         style="stop-color:#e6e6e6;stop-opacity:1"
         offset="1" /></radialGradient><radialGradient
       cx="44.687"
       cy="29.7715"
       r="30.080799"
       id="radialGradient3383"
       xlink:href="#SVGID_16_"
       gradientUnits="userSpaceOnUse"
       gradientTransform="matrix(0.9783,0,0,-0.9783,23.9379,243.4649)" /><radialGradient
       cx="44.687"
       cy="29.7715"
       r="30.080799"
       id="SVGID_16_"
       gradientUnits="userSpaceOnUse"
       gradientTransform="matrix(0.9783,0,0,-0.9783,23.9379,243.4649)"><stop
         id="stop183"
         style="stop-color:#f2f2f2;stop-opacity:1"
         offset="0" /><stop
         id="stop185"
         style="stop-color:#ededed;stop-opacity:1"
         offset="0.61379999" /><stop
         id="stop187"
         style="stop-color:#e6e6e6;stop-opacity:1"
         offset="1" /></radialGradient><linearGradient
       x1="139.75591"
       y1="62.7617"
       x2="187.75591"
       y2="62.7617"
       id="SVGID_14_"
       gradientUnits="userSpaceOnUse"
       gradientTransform="matrix(1,0,0,-1,24.9453,247.3594)"><stop
         id="stop106"
         style="stop-color:#999999;stop-opacity:1"
         offset="0" /><stop
         id="stop108"
         style="stop-color:#939393;stop-opacity:1"
         offset="0.259" /><stop
         id="stop110"
         style="stop-color:#848484;stop-opacity:1"
         offset="0.58749998" /><stop
         id="stop112"
         style="stop-color:#6a6a6a;stop-opacity:1"
         offset="0.9522" /><stop
         id="stop114"
         style="stop-color:#666666;stop-opacity:1"
         offset="1" /></linearGradient><linearGradient
       x1="139.75591"
       y1="42.404301"
       x2="187.75591"
       y2="42.404301"
       id="SVGID_15_"
       gradientUnits="userSpaceOnUse"
       gradientTransform="matrix(1,0,0,-1,24.9453,247.3594)"><stop
         id="stop145"
         style="stop-color:#999999;stop-opacity:1"
         offset="0" /><stop
         id="stop147"
         style="stop-color:#939393;stop-opacity:1"
         offset="0.259" /><stop
         id="stop149"
         style="stop-color:#848484;stop-opacity:1"
         offset="0.58749998" /><stop
         id="stop151"
         style="stop-color:#6a6a6a;stop-opacity:1"
         offset="0.9522" /><stop
         id="stop153"
         style="stop-color:#666666;stop-opacity:1"
         offset="1" /></linearGradient><radialGradient
       cx="48.1772"
       cy="161.18069"
       r="20.6486"
       id="SVGID_12_"
       gradientUnits="userSpaceOnUse"
       gradientTransform="matrix(1,0,0,-1,24.9453,247.3594)"><stop
         id="stop76"
         style="stop-color:#f2f2f2;stop-opacity:1"
         offset="0" /><stop
         id="stop78"
         style="stop-color:#ededed;stop-opacity:1"
         offset="0.61379999" /><stop
         id="stop80"
         style="stop-color:#e6e6e6;stop-opacity:1"
         offset="1" /></radialGradient></defs><path
     d="M 3.96875,1 C 2.3245533,1 1,2.3245533 1,3.96875 L 1,15.5 15.5,15.5 15.5,1 3.96875,1 z M 16.5,1 l 0,14.5 14.5,0 0,-11.53125 C 31,2.3245533 29.675447,1 28.03125,1 L 16.5,1 z m -8.8125,4.90625 1.4375,0 0,2.1875 2.1875,0 0,1.4375 -2.1875,0 0,2.15625 -1.4375,0 0,-2.15625 -2.15625,0 0,-1.4375 2.15625,0 0,-2.1875 z m 12.71875,2.1875 5.78125,0 0,1.4375 -5.78125,0 0,-1.4375 z M 1,16.5 1,28.03125 C 1,29.675447 2.3245533,31 3.96875,31 L 15.5,31 15.5,16.5 1,16.5 z m 5.78125,4.96875 1.625,1.625 1.625,-1.625 1.09375,1.09375 -1.625,1.625 1.625,1.625 -1.09375,1.09375 -1.625,-1.625 -1.625,1.625 L 5.6875,25.8125 7.34375,24.1875 5.6875,22.5625 6.78125,21.46875 z m 13.6875,0.5625 0,1.46875 5.78125,0 0,-1.46875 -5.78125,0 z m 0,2.46875 0,1.4375 5.78125,0 0,-1.4375 -5.78125,0 z"
     id="rect36"
     style="fill:#ffffff;stroke:none" /></svg>